/* XPM */
static char *cache___[] = {
/* columns rows colors chars-per-pixel */
"32 32 256 2",
"   c #5EEA07B81C57",
".  c #589B06F31A62",
"X  c #63EF08451DF7",
"o  c #6C9509CB2140",
"O  c #67B909CA2021",
"+  c #72F80BDF245B",
"@  c #7B1E0B7125D0",
"#  c #7F340CAF27B3",
"$  c #6F251A1D2E43",
"%  c #75A414092B2B",
"&  c #7AD0149B2CD5",
"*  c #79B817F42F0A",
"=  c #756E18DA2ECC",
"-  c #7AD51A2F312F",
";  c #76681F8A341B",
":  c #6E3124B93397",
">  c #74E121FD35B1",
",  c #794620BB35A3",
"<  c #73522D933D8B",
"1  c #798325C039AE",
"2  c #790938A636F8",
"3  c #795533FF2D4D",
"4  c #7BB844783D37",
"5  c #7AD42D833FDA",
"6  c #737C339B45C3",
"7  c #760735E14754",
"8  c #6C8544D14EFC",
"9  c #78CD40984491",
"0  c #745B5A14502E",
"q  c #829E0D6B2926",
"w  c #87020CDD29D0",
"e  c #855211852CEF",
"r  c #85CC1BDF3492",
"t  c #895A23BE37D1",
"y  c #831C40EE3BD3",
"u  c #890D472C38D5",
"i  c #86BA564A3B57",
"p  c #93D759093D43",
"a  c #927D69A43508",
"s  c #862F36CB434D",
"d  c #883A37BB4671",
"f  c #837A42AA3FF0",
"g  c #8C9352F8486A",
"h  c #916156DE42C7",
"j  c #93C1593243ED",
"k  c #9D7A5C3C46A3",
"l  c #919750CC507B",
"z  c #8B3B55A2550C",
"x  c #89FB655446FA",
"c  c #980D69414738",
"v  c #8F5971CD5C50",
"b  c #95BD76E85394",
"n  c #AE6F7FEC4580",
"m  c #A6DF7F5F578E",
"M  c #86FB5A4166FA",
"N  c #8EC06EBE7672",
"B  c #88E87BD076B5",
"V  c #91A762F666DC",
"C  c #B6849A352994",
"Z  c #A8938D15369D",
"A  c #B3989F603D3C",
"S  c #B0829A1B3352",
"D  c #A75889B22E28",
"F  c #BAB5A14C2BD4",
"G  c #BC0DA5193ACC",
"H  c #B9F1A39E3811",
"J  c #E0088F2A2D60",
"K  c #DE3F93633A1C",
"L  c #E97688472307",
"P  c #C341AB823A75",
"I  c #C273A9133208",
"U  c #CD8EB3FE39AD",
"Y  c #D073B51E3361",
"T  c #9A798C1B48A2",
"R  c #A1F18CCD3FF9",
"E  c #A96496B340FA",
"W  c #AF3F9E144AB0",
"Q  c #A7E291D94DBA",
"!  c #B049975B4800",
"~  c #B4498E784FE7",
"^  c #AB669B5153A9",
"/  c #B96598BC56DC",
"(  c #B78897545919",
")  c #AD9287855509",
"_  c #9F87A8894D6E",
"`  c #9C74ACBC51D2",
"'  c #9FB4BD52520B",
"]  c #970BB395424A",
"[  c #BA9CA5D24D01",
"{  c #BA9BA6504538",
"}  c #A6CFB5234627",
"|  c #B5E3A4875274",
" . c #BA9CA63D5363",
".. c #B9FCA7B259F8",
"X. c #A98CBF9B5DD1",
"o. c #B6C8B62C554A",
"O. c #954787C26A85",
"+. c #867884047898",
"@. c #98FA81697535",
"#. c #997F92287038",
"$. c #A7389BA769F2",
"%. c #B5BF98FC667D",
"&. c #AD3B87A5788D",
"*. c #B04D83E07DA6",
"=. c #BBF3AD916AD9",
"-. c #B878A74C6934",
";. c #AF70BF076A7B",
":. c #AFE1A63A794E",
">. c #B86AACCB7644",
",. c #BE64B11F73EF",
"<. c #BDB9B3BD7B72",
"1. c #B7C7BB7A6AB1",
"2. c #C54EAE35409D",
"3. c #C402AEBA4D22",
"4. c #CAB6B421489A",
"5. c #C1CBAD525449",
"6. c #C9C9B6725BC6",
"7. c #C768B67257B4",
"8. c #D63FBB50561A",
"9. c #D38BB3584F1C",
"0. c #E6ECB9A35017",
"q. c #CA90B783629F",
"w. c #CCF1BAE463BA",
"e. c #C292B34A6DDF",
"r. c #CD5CBC0C6B3B",
"t. c #D1E2BEBC6C55",
"y. c #D767B928675E",
"u. c #C2C9ACBB71D4",
"i. c #CD97BD8E71B2",
"p. c #C24EB55A7C4A",
"a. c #CB40BD317C49",
"s. c #C7C5B7227371",
"d. c #D593BB007729",
"f. c #BC9CC34C598D",
"g. c #D687C3C05AC7",
"h. c #D072D1775BF5",
"j. c #C3A2C7095638",
"k. c #EE69CCC84487",
"l. c #E777CD1349DF",
"z. c #EBB1CBD3589E",
"x. c #E83ED3735393",
"c. c #D4C5C31B63BE",
"v. c #DA58C6EC6B50",
"b. c #DDC1CAE96A72",
"n. c #D7AEC79B696A",
"m. c #DBA7D2696547",
"M. c #D7D3C65574EE",
"N. c #D2D5C2E77A8F",
"B. c #DEC1CCDD7816",
"V. c #C925CBA46B7A",
"C. c #E17ACDFC6D89",
"Z. c #E1ADCEA0736F",
"A. c #E349D39F7D84",
"S. c #E45DD2F26383",
"D. c #9CF59875836A",
"F. c #990795679282",
"G. c #861E870F84CC",
"H. c #AA7B9C868CD1",
"J. c #A84E9F5B9402",
"K. c #AB0088528281",
"L. c #8721A3EC9C07",
"P. c #A939A38188CB",
"I. c #B81AABA28914",
"U. c #BC91B44587F5",
"Y. c #A785A26D977D",
"T. c #B734AD6B997F",
"R. c #BAEFB4B99795",
"E. c #8D7DB764BB92",
"W. c #9F90BA28B9E3",
"Q. c #ADB4ABBCA62F",
"!. c #B005ACEEA9FD",
"~. c #BD41B6FFA624",
"^. c #BF6DBAAFA6E6",
"/. c #B8FDB5F8A910",
"(. c #ACE9AD70BFD7",
"). c #B6B0B424B259",
"_. c #BE8FBB43B2C4",
"`. c #BEDEBC75B9DE",
"'. c #B2C6AE89A889",
"]. c #CB61BC4D8493",
"[. c #C25CB73C8C1F",
"{. c #C69ABC288CCD",
"}. c #C3B8BB409273",
"|. c #C2B8BBA59C90",
" X c #C4A7BBE79C7E",
".X c #C2B2BEA2AB73",
"XX c #C1FABCFAA4DF",
"oX c #C0DFBE98B39A",
"OX c #C2B2BFAEB9EF",
"+X c #BECBC71BAD8A",
"@X c #BF08C6FFB82D",
"#X c #A98EC57BB2CE",
"$X c #CB29C6E588D3",
"%X c #DD75CE648638",
"&X c #D756C9678A4B",
"*X c #CE7FD2008380",
"=X c #E008D27981A0",
"-X c #CD71C4C39B54",
";X c #CD6CC3AF9646",
":X c #D211C701928C",
">X c #D5FACBFA9B13",
",X c #D852CCCA97A2",
"<X c #D99CD8149AC8",
"1X c #E117D04781EF",
"2X c #E416D3038387",
"3X c #E667D6C88BEA",
"4X c #F071D68B8382",
"5X c #E778D97F946B",
"6X c #E540D7B59877",
"7X c #F2CCDD709ADF",
"8X c #C4BFC2BAA44E",
"9X c #CDC6C64CA301",
"0X c #CC02C6FDACFF",
"qX c #D447CD43ABFF",
"wX c #D567CCCDA40A",
"eX c #DC30D291A35D",
"rX c #DD89D517AB0C",
"tX c #D1A8D8A4A761",
"yX c #C923C6D2B8DD",
"uX c #D38ECE43B4D4",
"iX c #D25DCEF7BEF8",
"pX c #DA56D527BC24",
"aX c #DB14D704B8F6",
"sX c #E580DC1AA56D",
"dX c #EB58E04CADD4",
"fX c #E418DEABB408",
"gX c #E8A5E014B963",
"hX c #ED5DE251AD25",
"jX c #E94AE1E9B869",
"kX c #F2B0E7DCBDA6",
"lX c #A7D4B560CBD7",
"zX c #AB66C1D2C5A3",
"xX c #C99FC7B0C279",
"cX c #C6C4C86BC35E",
"vX c #D181CEF6C984",
"bX c #D37FD025C0B4",
"nX c #D5B7D1EAC311",
"mX c #DBC1D9DDC6DD",
"MX c #D467D487CD48",
"NX c #DA16D750CBB4",
"BX c #DCBCD9EDCDF9",
"VX c #D66BD49DD119",
"CX c #DE04DBAED307",
"ZX c #DA7FDC74DC5B",
"AX c #E1A1DD11C9CD",
"SX c #EC37E608C4D9",
"DX c #E903E3BDCBFF",
"FX c #F155EA8CCB1B",
"GX c #EE31E920D20B",
"HX c #E7FAE59CD98C",
"JX c #F205EE24DA07",
"KX c #F6E1F2EFDDBF",
"LX c #D3DDDDEEE28E",
"PX c #EEA9EDBDE921",
"IX c #F6C1F56FEB65",
"UX c None",
/* pixels */
"UXUXUX=.UXUXUXUXUXUXUXUXUXUXUXUXUXUXUXUXUXUXUXUXUXUXUXUXyXUXUXUX",
"UXUXUXi.7.W I UXUXUXUXUXUXUXUXUXUXUXUXUXUXUXUXUXUXqX/.NXCXUXUXUX",
"UXUXUXe.7.{ P UXUXUXUXUXUXUXUXUXUXUXUXUXUXUXUXUXUX9X0XnXxXUXUXUX",
"UXUX[.N.6.4.P b 6 6 6 6 6 6 6 6 6 6 6 6 6 6 6 6 @.-XqXiXBXxXUXUX",
"UXUXUXp.w.4.{ a u h h g g j j j j j j j j j h u v }.qXpXyXUXUXUX",
"UXUXUXp.t.8.2.I P e.J.Y.Y.p.v.c.c.n.b.S.x.l.g.q.i.{.rXaXyXUXUXUX",
"UXUXUXUXM.8.2.C Q J.|.{._.[.N.t.r.Z.C.v.9.x.k.( -.$XeXaXUXUXUXUX",
"UXUXUXUX,.6.{ 2 b '.}.(.lX).,X&Xa.3X2X9.J 0.k.n 9 <.:X XUXUXUXUX",
"UXUXUXUXa.=.UX: ) /.}.|.^._.gX XI.hX6XK L 0.k.~ : UX[.;XUXUXUXUX",
"Q.oX'.I.&XD.UX< ( -XrXhXSXGXJXnXyXDXjXd.y.z.z.( < UXD.,XR.'.oXQ.",
"UXBX^.-XI.+.-.x  .B.rXSXKXJXCXvXyXBXAXkX7X4X2X..x -.+.I.;X^.mXUX",
"Y.iX.X-XP.#.,.7.4.n.5XjXGXHXVX!.Q.vXHXJXFXkX&XY U ..O.P.].|.uXY.",
"_.iXXX-XI.<.,.! [ v.%X>XuXyXOXF.F.`.xXCXmXSXsX5.Z  .=.:.a.}.qX^.",
"UXUX8X-X>.a.5.Z 5.C.A.$XtXDXnX).).VXPXIXKXFXhXs.D P q...a.[.UXUX",
"UXUXT.eXa.q.$.2 ~ m.n.1.$XaXnXNXxXZXPXIXJXSXsX%.2 ^ 3.5.M.:.UXUX",
"UX.XXXwX%Xw.U.M c m.7.` ;.<XjXAXMXLXIXMXmXfXtXc M U.U g.N.U.R.UX",
"UXbXuX-X,XC.c.@.y j.c._ X.5X<XSXHXlXcX@XyX+X#Xf @.4.Y c.i.$X9XUX",
"MXNXpXwX:Xe.5.Q 2 T h.o.' V.*XdXSXzXW.+X8X#XG.3 R H { 6.i.:XqXuX",
"MXoXAX9X>XUXE [ c u } } ] f.=X6XdXfXW.E.E.L.y a | ^ UXw.s.,XR.uX",
"UXUXiXT.>.T 7.N. .k p 7.g.b.Z.1X3X7X6X$X<.g p ..&Xe.T | :.-XUXUX",
"UXUXUXUX-.0 H.I.].-.2 h q.b.b.B.B.2XA.t.j 2 $.I.T.B x [ UXUXUXUX",
"UXUXUXUXV r M H.&Xr.W i u / n.C.C.b.( y 4 ^ r.].B 7 t m UXUXUXUX",
"UXUXUXUX- w < z u.q.G C a 3 p / / h 3 i E H 7.%.9 > w 1 UXUXUXUX",
"UXUXUXUX> e 5 7 l <.5.G H Z i : : i R W  .5.%.s 8 , e 5 UXUXUXUX",
"UXUXUXUX- o r N M ~.UXUX{ F A UXUXA C { UXUXH.M M q + > UXUXUXUX",
"UXUXUXUX> O o d UXUXUXUXr.P A  ...S F q.UXUXUXUXt + O UXUXUXUXUX",
"UXUXUXUXUX% O o r UXUXUX,.q.e.<.=. .3.,.UXUXUX& o o $ UXUXUXUXUX",
"UXUXUXUXUXUX+ @ q & UXUXUX%XeX0X8X,X,XUXUX, & O o & UXUXUXUXUXUX",
"UXUXUXUXUXUX> e o X o & d &.&.UXUXK.*.d % # X + % UXUXUXUXUXUXUX",
"UXUXUXUXUXUXUXUX& + .   + + + e + o o   . @ q - UXUXUXUXUXUXUXUX",
"UXUXUXUXUXUXUXUXUX, & + + o X q X   X O + * 1 UXUXUXUXUXUXUXUXUX",
"UXUXUXUXUXUXUXUXUXUXUX1 ; * % @ + % = ; UXUXUXUXUXUXUXUXUXUXUXUX"
};
